<svg viewBox="0 0 288.48 155.5" xmlns="http://www.w3.org/2000/svg"><path d="m158.32 15c4.14-5 9-6.37 13.85-4a12.39 12.39 0 0 1 6.72 14c-.42 1.85.3 2.22 1.71 2.41a35.26 35.26 0 0 1 7.57 1.89c5.45 2 9 5.68 9.78 11.5.69 5 1 10-.11 15-1.18 5.15-4 7.48-9.26 7.56-9.92.15-19.85.16-29.77.25-1.65 0-3.61-.38-4.6 1.25-1.1 1.81.63 3.11 1.54 4.4 10.52 15.05 21.17 30 31.14 45.43 1.48 2.28 2.82 4.64 4.27 6.92a7.9 7.9 0 0 1 -.09 9.14 30.32 30.32 0 0 1 -22 13.91c-3.38.47-5.88-1.17-7.73-4.18-10.63-17.27-21.34-34.42-32.4-51.38-2-3.06-4-6.14-6.1-9.1-5.61-7.77-7.09-16.54-6.4-25.85.18-2.38.64-4.75 1-7.12a18.73 18.73 0 0 1 9.56-14.25 34.23 34.23 0 0 1 11-4.23c1.78-.34 1.88-.87 1.25-2.46a12 12 0 0 1 .5-10.29 10.2 10.2 0 0 1 16.16-3.06c.79.69 1.54 1.41 2.41 2.26zm.26 1.51c-1.12-.43-1.61-1.53-2.44-2.27a10 10 0 0 0 -6.14-2.76c-5.26-.33-9.46 3.14-10.5 8.64a11.11 11.11 0 0 0 7.13 12.12c2.63.93 5.11.18 7.66-.13a8.93 8.93 0 0 1 -11.21-1c-2-1.83-3.77-1.78-5.85-1.18a43.32 43.32 0 0 0 -8.73 3.34 17.81 17.81 0 0 0 -9.2 12 60.06 60.06 0 0 0 -1.24 15.54 31.08 31.08 0 0 0 5.47 17c13.54 19.92 26.05 40.5 38.87 60.88 2.62 4.16 5 5.13 9.73 3.84a30.43 30.43 0 0 0 16.09-10.79c2.49-3.14 3.58-6.59.87-10.32-.92-1.25-1.55-2.71-2.38-4-10.35-16.53-21.55-32.49-32.56-48.57-.88-1.28-2.07-2.57-1.26-4.26s2.68-2.16 4.5-2.28h2.19c9.72-.09 19.43-.14 29.14-.29 4.34-.07 6.8-2.1 7.75-6.29a40.09 40.09 0 0 0 .21-13.73c-.79-6.62-4.78-10.3-11-12.09-2.94-.85-6-1.09-8.92-1.73 3.95-6.09.38-12.73-3.62-15.2-4.94-2.98-11.48-1.98-14.56 3.48z" fill="#7f33ad"/><path d="m151.59 3.92c-3.75 0-3.75 0-5.85 3.61-.86-3.11-.25-5.33 1.64-6q2.49-.9 4.15 2.46z" fill="#101011"/><path d="m166.23 4.38c-3.18-2.18-3.4-2.19-6.3-.26 0-2.64.87-4 2.58-4.11s2.76.99 3.72 4.37z" fill="#101010"/><path d="m151.53 4 .42.09-.26.26-.1-.42z" fill="#101011"/><path d="m176.75 28.2c3 .64 6 .88 8.92 1.73 6.23 1.79 10.22 5.47 11 12.09a40.09 40.09 0 0 1 -.22 13.69c-1 4.19-3.41 6.22-7.75 6.29-9.71.15-19.42.2-29.14.29-.73 0-1.46 0-2.19 0-1.82.12-3.63.46-4.5 2.28s.38 3 1.26 4.26c11 16.08 22.21 32 32.56 48.57.83 1.32 1.46 2.78 2.38 4 2.71 3.73 1.62 7.18-.87 10.32a30.43 30.43 0 0 1 -16.09 10.79c-4.74 1.29-7.11.32-9.73-3.84-12.82-20.38-25.33-41-38.87-60.88a31.08 31.08 0 0 1 -5.47-17 60.06 60.06 0 0 1 1.24-15.54 17.81 17.81 0 0 1 9.2-12 43.32 43.32 0 0 1 8.74-3.25c2.08-.6 3.83-.65 5.85 1.18a8.93 8.93 0 0 0 11.21 1c.18-.41-.08-.4 1.29-1.28a17.87 17.87 0 0 0 4.22-7l.65 1.3c-1.66 2-.75 3.55 1 4.87 4.27 3.27 10.5 4.03 15.31-1.87zm-24.1 8.5c-.09 3.55.51 4.68 2.42 5 2.06.36 3.92-1.17 4.53-3.72-3.6 2.49-4.16 2.41-6.95-1.28z" fill="#ddaef2"/><path d="m176.75 28.2c-4.81 5.9-11 5.14-15.35 1.88-1.75-1.32-2.66-2.84-1-4.87a16.8 16.8 0 0 0 1.16 1.48 7.26 7.26 0 0 0 9.86.93 7.33 7.33 0 0 0 .94-9.88c-2.26-3-6.9-4.43-10-1.45a4.45 4.45 0 0 1 3.08.75c.63 1.21.73 2.38-.6 3.17-1.51.89-2.47.05-3.24-1.21-.05-.55.3-1.16-.19-1.67-.95.26-.91 1.36-1.61 1.81a4.5 4.5 0 0 0 -1.26-2.74l.06.06c3.06-5.46 9.6-6.46 14.53-3.46 4 2.47 7.57 9.11 3.62 15.2z" fill="#fcfbfc"/><path d="m159.75 23.91a17.87 17.87 0 0 1 -4.22 7c-.44.42-1.14.56-1.29 1.28-2.55.31-5 1.06-7.66.13a11.11 11.11 0 0 1 -7.13-12.12c1-5.5 5.24-9 10.5-8.64a10 10 0 0 1 6.15 2.71c.83.74 1.32 1.84 2.44 2.27l-.06-.06c0 1.42.8 2.59 1.29 3.86zm-10.12 5.32a6.85 6.85 0 0 0 7-6.83 7.68 7.68 0 0 0 -7.17-7.64 7.06 7.06 0 0 0 -7.13 7.13 7.23 7.23 0 0 0 7.3 7.34z" fill="#fcfbfc"/><path d="m159.75 23.91.06-3.65v-1.12c.7-.45.66-1.55 1.61-1.81.49.51.14 1.12.19 1.67-1.55 2.54-1.46 4.59.29 6.47a5.5 5.5 0 0 0 6.59 1.06 5 5 0 0 0 2.33-5.64c-.82-2.75-2.46-3.89-5.4-3.89a4.45 4.45 0 0 0 -3.08-.75c3.12-3 7.76-1.53 10 1.45a7.33 7.33 0 0 1 -.94 9.88 7.26 7.26 0 0 1 -9.86-.93 16.8 16.8 0 0 1 -1.16-1.48z" fill="#6f5785"/><path d="m152.65 36.7c2.79 3.69 3.36 3.77 6.95 1.29-.61 2.55-2.47 4.08-4.53 3.72-1.91-.33-2.51-1.46-2.42-5.01z" fill="#843ab0"/><path d="m165.42 17c2.94-.08 4.58 1.1 5.37 3.85a5 5 0 0 1 -2.33 5.64 5.5 5.5 0 0 1 -6.59-1.06c-1.75-1.88-1.84-3.93-.29-6.47.77 1.26 1.73 2.1 3.24 1.21 1.33-.75 1.23-1.92.6-3.17z" fill="#020202"/><path d="m159.78 19.14v1.12c-.49-1.27-1.26-2.44-1.29-3.86a4.5 4.5 0 0 1 1.29 2.74z" fill="#7f33ad"/><path d="m149.63 29.23a7.23 7.23 0 0 1 -7.29-7.34 7.06 7.06 0 0 1 7.13-7.13 7.68 7.68 0 0 1 7.17 7.64 6.85 6.85 0 0 1 -7.01 6.83zm-1.13-11.49c-.75-.84-1.53-1.65-2.81-1.16s-1.39 1.82-1.51 3c0 .83-.05 1.66 0 2.48.12 3.09 2.07 5.1 5 5.18s4.82-1.49 5.13-4.24a5.74 5.74 0 0 0 -4.31-6.3c-.87-.14-1.4.1-1.5 1.04z" fill="#6e5784"/><path d="m148.5 17.74c.1-.94.63-1.18 1.5-1a5.74 5.74 0 0 1 4.31 6.3c-.28 2.71-2.22 4.3-5.14 4.22s-4.89-2.09-5-5.18c0-.82 0-1.65 0-2.48 3.24 1.82 4.07 1.47 4.33-1.86z" fill="#010101"/><path d="m148.5 17.74c-.26 3.33-1.09 3.68-4.32 1.86.12-1.2.11-2.48 1.51-3s2.06.3 2.81 1.14z" fill="#fcfbfc"/><path d="m269.79 27.82c.6-.54 1.09-1.05 1.64-1.48 4.39-3.41 9.87-2.53 13 2.14a13.59 13.59 0 0 1 1.48 12.23c-.4 1.24-.46 2 .49 3 2.09 2.21 2.5 4.84 1.75 7.81q-12.24 48-24.4 96c-1.43 5.59-5.81 8.1-11.36 6.7-8.87-2.24-17.69-4.65-26.6-6.69-5.73-1.31-7.86-6.45-6.87-11.09.2-.91.45-1.81.67-2.72q11.59-45.72 23.17-91.52c.87-3.46 2-6.61 5.59-8 1.11-.44.76-1.31.89-2.07a14.44 14.44 0 0 1 5.94-9.85c5.63-4 12.4-1.69 14.07 4.33a11.73 11.73 0 0 0 .54 1.21zm-.12 2.24-.6-.18c-.51-3.91-2.15-7-6.26-8s-7.25.92-9.84 3.93a10.55 10.55 0 0 0 -1.22 1.8c-3.84 6.93-.92 14 6.34 15.4l.25.88a10.64 10.64 0 0 1 -8.69-6.07 3.52 3.52 0 0 0 -.61-2.4 7.62 7.62 0 0 0 -4.65 5.4q-2.22 8.86-4.43 17.73c-1.79 6.91-3.62 13.81-5.37 20.73q-5 19.85-10 39.73c-1.43 5.53-2.9 11.05-4.28 16.59-1.31 5.25.91 9 6.13 10.32 8.45 2.17 17 4.07 25.34 6.52 5.6 1.64 9.88-1.14 11.12-6.56 2.8-12.14 6-24.18 9.1-36.26q7.35-28.83 14.7-57.62a8.41 8.41 0 0 0 -.36-6.05c-1.06-2.15-1.6-2.16-3.35-.13l-2.66 1.87a13.75 13.75 0 0 1 -2.7.64c-2.95.1-5.81-.13-7.32-3.29 4.89 3.37 8.86 3.29 12.2-.26a12.61 12.61 0 0 0 .54-16c-3.81-4.73-10.36-4.08-13.38 1.28z" fill="#9d5017"/><path d="m280.68 21.41c-1.33-4.65-2.84-5.3-5.95-4.75 1.23-2.37 2.59-3.17 4.29-2.51 2.07.85 2.79 3.97 1.66 7.26z" fill="#101010"/><path d="m269 15c-3.27-1.23-5.33.38-7.06 3.23a7 7 0 0 1 1.87-5c.8-1 1.81-1.83 3.19-1.49 1.49.4 1.93 1.63 2 3.26z" fill="#0f0f0f"/><path d="m270.31 45c1.51 3.16 4.37 3.39 7.32 3.29a13.75 13.75 0 0 0 2.7-.64 4.88 4.88 0 0 0 1.47 3.35 1.75 1.75 0 0 0 2 .51c.66-.25.76-.94.84-1.55a4.77 4.77 0 0 0 -1.64-4.18c1.75-2 2.29-2 3.35.13a8.41 8.41 0 0 1 .35 6.09q-7.38 28.79-14.7 57.64c-3.06 12.08-6.3 24.12-9.1 36.26-1.24 5.42-5.52 8.2-11.12 6.56-8.37-2.45-16.89-4.35-25.34-6.52-5.22-1.34-7.44-5.07-6.13-10.32 1.38-5.54 2.85-11.06 4.28-16.59.5-.11.79-.89 1.32-.65.77.34.36 1.07.22 1.62-1.28 5.15-2.62 10.27-3.87 15.43-1.05 4.34.87 7.64 5.15 8.76q12.68 3.3 25.4 6.44c3.64.91 8-1.89 8.78-5.55a1.41 1.41 0 0 0 -.25-1.45c-.52-.49-1-.06-1.37.24-1.92 1.68-3.95 1.23-6.14.65-6.73-1.8-13.5-3.45-20.25-5.18a6.58 6.58 0 0 1 -5.12-8c.55-2.85 1.44-5.64 2.09-8.48a2.54 2.54 0 0 1 2.41-2 7 7 0 0 1 3.05.43c7.76 2 15.52 4 23.28 5.89 2.54.63 2.86.44 3.52-2 1.11-4.23 2.17-8.46 3.23-12.7.77-3.12.67-3.31-2.39-4.09q-11.19-2.86-22.37-5.68a19.47 19.47 0 0 1 -2.41-.66c-2.36-.94-2.62-1.46-2-4 1.16-4.64 2.35-9.27 3.53-13.91.94-3.72 1.2-3.89 4.91-3l23.29 5.9c3.63.92 3.64.91 4.59-2.84q1.54-6 3.07-12.09c.71-2.86.7-2.88-2-3.59-4.73-1.22-9.47-2.41-14.21-3.61-3.43-.87-6.87-1.68-10.27-2.62-2.75-.77-3.32-1.83-2.65-4.56.59-2.42 1.21-4.84 1.84-7.25.18-.68.32-1.68 1.28-1.44 1.74.44 3.78.15 5.08 1.82a2.77 2.77 0 0 1 -.28.54.67.67 0 0 0 -.6.58l-1.06 4.14a.62.62 0 0 0 .26.74c1.87 3.7 3.55 4.17 7.32 2.05l.84-.64a8.21 8.21 0 0 1 2.9-.66 5 5 0 0 0 5.19-3c1.5-1 2-2.42 2.05-4.81-.9 2-1.53 3.3-2.16 4.65-.8.46-1.58 1-2.41 1.36a5 5 0 0 1 -5.53-.51 6.76 6.76 0 0 1 -1.8-8.48 1.07 1.07 0 0 0 -.12-1.39c-.19-.48-.41-.4-.65 0a2.05 2.05 0 0 1 -.9-1.52c1.05-.29 2.38 0 2.9-1.41a15.65 15.65 0 0 0 4.43-3.12 1.79 1.79 0 0 1 2.09.51c-.2.54-.23 1 .34 1.39h-.06a4 4 0 0 0 2.26 3.72zm13.82 9.27c.2-.71.07-1.25-.69-1.46a1.16 1.16 0 0 0 -1.5.73 1.1 1.1 0 0 0 .73 1.48c.67.24 1.16-.14 1.46-.75z" fill="#fed013"/><path d="m258.34 43.91a2.05 2.05 0 0 0 .9 1.52c-.19 1.39-2.54 2.19-1.13 4l-1.11.57c-.74 0-1 .82-1.63.92-1.3-1.67-3.34-1.38-5.08-1.82-1-.24-1.1.76-1.28 1.44-.63 2.41-1.25 4.83-1.84 7.25-.67 2.73-.1 3.79 2.65 4.56 3.4.94 6.84 1.75 10.27 2.62 4.74 1.2 9.48 2.39 14.21 3.61 2.74.71 2.75.73 2 3.59q-1.51 6-3.07 12.09c-1 3.75-1 3.76-4.59 2.84l-23.29-5.9c-3.71-.93-4-.76-4.91 3-1.18 4.64-2.37 9.27-3.53 13.91-.62 2.51-.36 3 2 4a19.47 19.47 0 0 0 2.41.66q11.18 2.83 22.37 5.68c3.06.78 3.16 1 2.39 4.09-1.06 4.24-2.12 8.47-3.23 12.7-.66 2.48-1 2.67-3.52 2-7.76-1.94-15.52-3.93-23.28-5.89a7 7 0 0 0 -3.05-.43 2.54 2.54 0 0 0 -2.41 2c-.65 2.84-1.54 5.63-2.09 8.48a6.58 6.58 0 0 0 5.12 8c6.75 1.73 13.52 3.38 20.25 5.18 2.19.58 4.22 1 6.14-.65.34-.3.85-.73 1.37-.24a1.41 1.41 0 0 1 .25 1.45c-.81 3.66-5.14 6.46-8.78 5.55q-12.72-3.15-25.4-6.44c-4.28-1.12-6.2-4.42-5.15-8.76 1.25-5.16 2.59-10.28 3.87-15.43.14-.55.55-1.28-.22-1.62-.53-.24-.82.54-1.32.65q5-19.86 10-39.73c1.75-6.92 3.58-13.82 5.37-20.73 1.58 1.58 1.77.14 2-1q1.92-7.47 3.8-15a6.36 6.36 0 0 1 3.84-4.81 10.64 10.64 0 0 0 8.7 6.09z" fill="#f8a61a"/><path d="m265.67 39.38a15.65 15.65 0 0 1 -4.43 3.12l-3.15.53c-7.26-1.4-10.18-8.47-6.34-15.4a10.55 10.55 0 0 1 1.22-1.8c2.59-3 5.73-4.91 9.84-3.93s5.75 4.07 6.26 8a14.43 14.43 0 0 1 -3.4 9.48zm-10.67-7.76c-.92 3.45.65 6.5 3.79 7.35a7 7 0 0 0 8.3-5.17 5.8 5.8 0 0 0 -3.86-7.37c-3.48-.97-7.17 1.35-8.23 5.19z" fill="#fdfcfc"/><path d="m269.67 30.06c3-5.36 9.57-6 13.38-1.33a12.61 12.61 0 0 1 -.54 16c-3.34 3.55-7.31 3.63-12.2.26l-2.31-3.79h.06a1.33 1.33 0 0 0 -.34-1.39 7 7 0 0 1 .77-3.74 8.22 8.22 0 0 0 1.18-6.01zm2.24 1.22c-2.83 2-3.34 6-1.17 9.15a5.51 5.51 0 0 0 9.51-.18 7.42 7.42 0 0 0 -1.47-9.31c-2.34-2-4.87-1.84-6.94.39z" fill="#fdfcfc"/><path d="m249.65 37.84a6.36 6.36 0 0 0 -3.84 4.81q-1.89 7.47-3.8 15c-.28 1.11-.47 2.55-2 1q2.22-8.87 4.43-17.73a7.62 7.62 0 0 1 4.65-5.4 3.52 3.52 0 0 1 .56 2.32z" fill="#fadd16"/><path d="m283 45.78a4.77 4.77 0 0 1 1.62 4.14c-.08.61-.18 1.3-.84 1.55a1.75 1.75 0 0 1 -2-.51 4.88 4.88 0 0 1 -1.47-3.31z" fill="#fefdf7"/><path d="m269.67 30.06a8.22 8.22 0 0 1 -1.14 6.09 7 7 0 0 0 -.77 3.74 1.79 1.79 0 0 0 -2.09-.51 14.43 14.43 0 0 0 3.4-9.5z" fill="#c28f63"/><path d="m258.09 43 3.15-.53c-.52 1.38-1.85 1.12-2.9 1.41z" fill="#f8a61a"/><path d="m255.33 50.9c.66-.1.89-1 1.63-.92-1.68 4.92-.35 6.93 4.92 7.47 0 .3-.06.59-.1.89a.85.85 0 0 0 -.78.66c-3.77 2.12-5.45 1.65-7.32-2.05a.62.62 0 0 0 -.26-.74l1.03-4.21a.69.69 0 0 0 .6-.58 2.77 2.77 0 0 0 .28-.52z" fill="#e7565a"/><path d="m261.78 58.34c0-.3.07-.59.1-.89-1.77-2.42-3.69-4.77-3.77-8-1.41-1.84.94-2.64 1.13-4h.65a1.07 1.07 0 0 1 .12 1.39 6.76 6.76 0 0 0 1.8 8.48 5 5 0 0 0 5.53.51c.83-.4 1.61-.9 2.41-1.36l.11.16a5 5 0 0 1 -5.19 3 8.21 8.21 0 0 0 -2.89.71z" fill="#ab601c"/><path d="m284.13 54.27c-.3.61-.79 1-1.46.75a1.1 1.1 0 0 1 -.73-1.48 1.16 1.16 0 0 1 1.5-.73c.76.19.89.75.69 1.46z" fill="#fefadb"/><path d="m269.76 54.47c.63-1.35 1.26-2.7 2.16-4.65 0 2.39-.55 3.82-2.05 4.81z" fill="#ab601c"/><path d="m268 41.2 2.34 3.8a4 4 0 0 1 -2.34-3.8z" fill="#9d5017"/><path d="m267.75 39.85a1.33 1.33 0 0 1 .34 1.39c-.57-.35-.54-.85-.34-1.39z" fill="#c28f63"/><path d="m261 59a.85.85 0 0 1 .84-.64z" fill="#ab601c"/><g fill="#f8a61a"><path d="m253.39 56.16a.62.62 0 0 1 .26.74.62.62 0 0 1 -.26-.74z"/><path d="m259.9 45.45h-.65c.24-.4.46-.45.65 0z"/><path d="m255.05 51.44a.69.69 0 0 1 -.6.58.67.67 0 0 1 .6-.58z"/></g><path d="m258.11 49.46c.08 3.22 2 5.57 3.77 8-5.27-.54-6.6-2.55-4.92-7.47z" fill="#fbf3f2"/><path d="m255 31.62c1-3.84 4.72-6.16 8.23-5.19a5.8 5.8 0 0 1 3.86 7.37 7 7 0 0 1 -8.3 5.17c-3.11-.85-4.68-3.9-3.79-7.35zm6.66-2.92c-.12-1.08-.6-1.75-1.78-1.35-1.4.48-2.65 1.15-2 3a17.39 17.39 0 0 0 -.67 2.39 4 4 0 0 0 3.89 4.57 4.91 4.91 0 0 0 5.17-4.68 4 4 0 0 0 -4.58-3.93z" fill="#7f5e42"/><path d="m271.84 31.33c2.07-2.23 4.6-2.37 6.94-.39a7.42 7.42 0 0 1 1.47 9.31 5.51 5.51 0 0 1 -9.51.18c-2.17-3.18-1.66-7.18 1.17-9.15a4.72 4.72 0 0 0 -.56 2.33c-1.61 2.34-1.09 4.86 1.34 6.5a4 4 0 0 0 5.63-1.29 5.21 5.21 0 0 0 -1.69-6.82c-1-.58-1.16.58-1.8.66-.09-2.38-.09-2.38-2.99-1.33z" fill="#805f44"/><path d="m261.69 28.7a4 4 0 0 1 4.64 3.95 4.91 4.91 0 0 1 -5.17 4.68 4 4 0 0 1 -3.89-4.57 17.39 17.39 0 0 1 .67-2.39 2.84 2.84 0 0 0 3.75-1.67z" fill="#020202"/><path d="m261.69 28.7a2.84 2.84 0 0 1 -3.75 1.67c-.68-1.87.57-2.54 2-3 1.15-.37 1.63.25 1.75 1.33z" fill="#f2f0ee"/><path d="m274.83 32.67c.64-.08.78-1.24 1.8-.66a5.21 5.21 0 0 1 1.69 6.81 4 4 0 0 1 -5.63 1.29c-2.43-1.64-2.95-4.16-1.34-6.5 1.46.8 2.55.22 3.48-.94z" fill="#020202"/><path d="m274.83 32.67c-.93 1.16-2 1.74-3.48.94a4.72 4.72 0 0 1 .56-2.33h-.07c2.9-1 2.9-1 2.99 1.39z" fill="#f6f5f5"/><path d="m76.09 68.06a12.1 12.1 0 0 1 -4.55-1.65c1.12-1 2 .29 3 .32.46 0 1 .31 1.12-.42.08-.48-.32-.62-.68-.73a20.61 20.61 0 0 1 -2.19-.69c-2.58-1.15-5.25-2.17-7.07-4.52 3 .62 6 1.25 9 1.84 2.51.49 4.9.72 6.43-2.07a7.71 7.71 0 0 1 2.09-2c2.76-2.09 5.27-4.5 8.76-5.44 3.08-.84 3.58-1.63 3.71-4.91.15-3.75-1.21-7.15-2.19-10.64-.3-1.06-1.11-1-2.08-1a38.31 38.31 0 0 0 -10.08 2.2c-2 .65-3.9 1.61-4.36 4.15-.14.8-.43 2.27-2 1.7v.06a.79.79 0 0 0 .25-.83.79.79 0 0 0 .25-.83c.24-.22.49-.45-.1-.52a21 21 0 0 0 -.65-6.24c-.87-3.69-3.57-6.06-5.59-8.93 1.37-.68 2.79-1.26 4.21-1.84 2.42-1 5.1-1.08 7.4-2.35 1.07.86 2.55.75 3.66 1.6 1.3 1 .87-.64 1.3-1 2.87 1.71 4.78 4.37 6.65 7 3.72 5.2 7 10.71 7.41 17.28s-1.32 12.59-6.9 16.92c-4.27 3.32-9.16 3.69-14.25 3.25-.92.05-1.76-.33-2.55.29z" fill="#7aca42"/><path d="m74.92 44.22c1.61.57 1.9-.9 2-1.7.46-2.54 2.37-3.5 4.36-4.15a38.31 38.31 0 0 1 10.08-2.2c1-.05 1.78-.08 2.08 1 1 3.49 2.34 6.89 2.19 10.64-.09 3.26-.63 4.05-3.63 4.89-3.45.94-6 3.35-8.66 5.48a7.71 7.71 0 0 0 -2.09 2c-1.53 2.79-3.92 2.56-6.43 2.07-3-.59-6-1.22-9-1.84a.85.85 0 0 0 -.19-.14s-.11 0-.17 0l.36.11c1.82 2.35 4.49 3.37 7.07 4.52a20.61 20.61 0 0 0 2.19.69c.36.11.76.25.68.73-.13.73-.66.43-1.12.42-1 0-1.93-1.32-3-.32l-3-1.36.11 1.6c-.26.07-1-1-.72.11a29.11 29.11 0 0 1 .81 4.5c.4 4.88-1 9.16-4.81 12.37a16.73 16.73 0 0 1 -13.39 3.88c1-1.52 2.58-.8 3.85-1 13.05-2.3 16.18-15.16 10.25-25.08 1.54 6.53 1.66 12.25-3 17-4.4 4.48-9.84 5.87-16.11 5.81a7.09 7.09 0 0 1 .51-1.06c5.27-7 9.33-14.64 13.85-22.05 2.54-4.16 4.66-8.69 8.46-12 .8 1.93-.61 3.12-1.58 4.35a12.77 12.77 0 0 0 -2.36 3.85c3.1 2.21 6.66 2.66 10.15 3.31a5.89 5.89 0 0 0 5.34-1.71c3.94-3.61 7.76-7.53 13.32-8.72.9-.2.67-1 .76-1.67.38-2.75-.52-5.29-1.15-7.9-.68-2.81-1.11-3.12-3.94-2.6s-4.99 1.78-7.59 2.54c-1.92.57-3 1.35-3.53 3.25s-1.53 3.92-3.71 3.92c-1.49 0-2.74.76-4.16.64a11.42 11.42 0 0 0 4.92-4.18z" fill="#a3d752"/><path d="m72.25 103.65a167.61 167.61 0 0 1 25.58 26.35 5 5 0 0 1 .88 4.61 16.72 16.72 0 0 1 -2.8 5.71 41.67 41.67 0 0 1 -17.91 14.32 10.54 10.54 0 0 1 -1.65.52c-3.2.76-4 .4-5.62-2.46a202 202 0 0 0 -22.61-31.94c-11.04-12.76-23.72-23.76-37.24-33.9-3.1-2.31-6.06-4.79-9.19-7.06a3.83 3.83 0 0 1 -1.48-4.57 24 24 0 0 1 2.47-5.87 71.32 71.32 0 0 1 13.53-16.69c1.86 2.56 3.2 5.37 5.33 7.62a19.59 19.59 0 0 0 11 6.09c8.31 1.45 12.34-4 11.72-9.69l.23-.11.22-.13c1 3.17 0 5.86-2.15 8.18-1.11 1.21-2.81 1.6-4.17 2.49a1.89 1.89 0 0 0 -.52.18 1.05 1.05 0 0 0 -1.26.11c-9.88.23-16.06-5.3-20.49-13.58a73.81 73.81 0 0 0 -12.74 16.09 21.42 21.42 0 0 0 -2.21 5.35 3 3 0 0 0 1.1 3.57c1.92 1.45 3.56 3.25 5.73 4.31a11 11 0 0 0 2.87 2.39c4.19 3.27 8.46 6.43 12.56 9.8a198.2 198.2 0 0 1 26 25.07 254.88 254.88 0 0 1 20.34 28.08c.44.86.87 1.73 1.33 2.58 2 3.71 3 4 6.89 2.28a41.07 41.07 0 0 0 11.84-7.74c3.18-3.11 6.21-6.37 7.58-10.78a4.65 4.65 0 0 0 -1-4.79c-3.42-4.19-7.13-8.12-10.81-12-2-2.17-3.83-4.61-6.41-6.21-2.31-2.11-4.17-4.77-7.25-6 .17-.71-.1-1.49.32-2.16z" fill="#0c6e30"/><path d="m44.68 56.45-.22.13-.23.11c-1.23-7.14-5.87-11.69-11.99-15.23 4.39-3.28 8.8-6 13.23-8.79 1.72-1.07 2.25-.47 2.85 1.1a22.49 22.49 0 0 0 10.07 11.57 15.72 15.72 0 0 0 8.8 2.49c4.81-.26 7.68-3.43 7.24-8.21-.5-5.3-3.33-9.38-7.16-12.85-1.2-1.09-2.51-2.06-4.07-3.32 5.66-2.06 10.8-4.94 16.8-4.68-.18 1.1-1 .57-1.6.65a39.7 39.7 0 0 0 -13.4 4.43l4.09 3.15c2 2.87 4.72 5.24 5.59 8.93a21 21 0 0 1 .65 6.24.54.54 0 0 0 .1.52.66.66 0 0 0 -.25.83.66.66 0 0 0 -.25.83v-.06a11.42 11.42 0 0 1 -4.93 4.11l-1.11.39a19.88 19.88 0 0 1 -8.45-1.39c-2.18-.83-3.9-2.45-6-3.37-.29-.58-.53-1.21-1.3-1.32-2.63-2.81-5-5.79-6.1-9.89a95.43 95.43 0 0 0 -13.15 8.57c1.73 1.37 3.47 2.24 4.81 3.63 2.96 3.29 5.79 6.67 5.98 11.43z" fill="#1f7d3b"/><path d="m69.09 27-4.09-3.15a39.7 39.7 0 0 1 13.39-4.43c.56-.08 1.42.45 1.6-.65 1.68.16 2.91 1.19 4.16 2.18-.28.46 0 .82.2 1.19a.64.64 0 0 0 .68.36l.65.94c-.43.34 0 2-1.3 1-1.11-.85-2.59-.74-3.66-1.6a2 2 0 0 0 -2.27-2.58c-.5.05-1 .21-1.08.75a.91.91 0 0 0 .63 1.09c.88.3 1.8.49 2.7.72-2.3 1.27-5 1.35-7.4 2.35-1.42.58-2.84 1.16-4.21 1.83z" fill="#acdc5d"/><path d="m85.67 23.44c-.21-.32-.43-.63-.65-.94l-.16-.6v-.09c8.4 6.49 14.26 14.7 15.76 25.34 1 7.14-.91 13.71-6.93 18.34-5.33 4.1-11.38 4.31-17.63 2.57.79-.62 1.63-.24 2.49-.17 5.09.44 10 .07 14.25-3.25 5.58-4.33 7.34-10.25 6.9-16.92s-3.7-12.08-7.38-17.28c-1.87-2.63-3.78-5.29-6.65-7z" fill="#177537"/><path d="m50.58 87.51a16.73 16.73 0 0 0 13.42-3.88c3.84-3.21 5.21-7.49 4.81-12.37a29.11 29.11 0 0 0 -.81-4.5c-.26-1.1.46 0 .72-.11 4 11.83-3.35 22-15.88 22.06-.74 0-1.53-.41-2.22.19l-.27-.33-.16.27h.45c1.24 1.33 3.16 1.61 4.43 2.89l-1.69.12a54 54 0 0 0 -8.3-4.65c0-.87.64-.5 1-.39a14.15 14.15 0 0 0 4.5.7z" fill="#157335"/><path d="m56.66 92.72a5.71 5.71 0 0 0 4.56.59c3.87-1.12 8.86 2.07 10.55 6.38.31.8 1.14 1.64.47 2.66h.07c-.54-1-1.06-2-1.62-3a9.6 9.6 0 0 0 -6.18-4.79 6 6 0 0 0 -7.72 4.83c-.12.54.08 1.16-.38 1.62a4.93 4.93 0 0 1 .92-5.1c.51-.69.86-1.28-.07-1.88z" fill="#0c6e30"/><path d="m56.66 92.72.6 1.29c-2.31-.83-4-.15-5 2.42-.91-3-.91-3 1.11-4.59l1.63-.12a4 4 0 0 1 1.66 1z" fill="#111a0b"/><path d="m72.24 102.35c.24.43.68.86 0 1.3h.09c-.12-.43-.64-.85 0-1.3z" fill="#0c6e30"/><path d="m84.34 22.14c-.22-.37-.48-.73-.2-1.19l.75.86v.09a1 1 0 0 1 -.55.24z" fill="#177537"/><path d="m75 44.28a.66.66 0 0 1 .25-.83.79.79 0 0 1 -.25.83z" fill="#a3d752"/><path d="m75.2 43.49a.66.66 0 0 1 .25-.83.79.79 0 0 1 -.25.83z" fill="#a3d752"/><path d="m75.43 42.7a.54.54 0 0 1 -.1-.52c.59.07.34.3.1.52z" fill="#a3d752"/><path d="m50.58 87.51a14.15 14.15 0 0 1 -4.52-.71c-.37-.11-1-.48-1 .39-.18-.06-.51-.1-.52-.17-.09-1.14 0-2.33-1.53-.74a36.64 36.64 0 0 1 -9.92 7.3c-2 1-1.93 1.1-.28 2.8 3.29 3.37 7 6.31 10.07 9.89a2 2 0 0 0 2.84.41c.12.45.27.87.85.86-.4 6.69 2.2 10 8.7 11.16.36 1.56 1.52 2.56 2.5 3.73 2.35 2.78 4.68 5.58 6.75 8.59.84 1.22 1.56 2.25 3.53.74a50.48 50.48 0 0 0 12.68-14.82 50.8 50.8 0 0 1 10.6 11.49 9.63 9.63 0 0 0 -2.15 2.69c-3.6 5.13-7.15 10.28-12.54 13.8-1.35.88-1.15 1.82.29 2.49a6.06 6.06 0 0 0 2.86.31 20.49 20.49 0 0 0 6.56-1.81 19.76 19.76 0 0 1 -9.24 5.48c-2 .64-3.86.28-4.82-1.92-.52-1.19-1.5-1-2.46-1a254.88 254.88 0 0 0 -20.34-28.08 198.2 198.2 0 0 0 -26-25.07c-4.1-3.37-8.37-6.53-12.56-9.8a11 11 0 0 1 -2.93-2.37c.49-.54 1.55.14 1.87-.81-1.69-1.57-3.68-2.6-5.33-4.11a3 3 0 0 1 -1.11-3.06 27.1 27.1 0 0 1 6.15-12c.29.81-.12 1.13-.3 1.55-1.09 2.46-2.57 4.8-2.46 7.62 0 1.3-.18 2.71 1.13 3.68 2.56 1.88 5.1 3.81 7.62 5.75a3.19 3.19 0 0 0 2.92.47c6.09-1.22 11-4.43 15.22-8.79 1.83-1.88 4.17-3.46 4.61-6.38 1.36-.89 3.06-1.28 4.17-2.49 2.12-2.32 3.12-5 2.15-8.18-.19-4.76-3-8.14-6-11.44.5-1.81-2-1.58-2.09-3.3 5 2.8 8.08 7.17 10.84 12.23 1.43-2.55 2.54-4.57 3.68-6.56 1.5-2.63 1.52-2.61 4-.93 2.28 1.54 4.65 2.88 7.56 2.8-2.88-1.42-6.21-2.2-8.2-5.2 2.11.92 3.83 2.54 6 3.37a19.88 19.88 0 0 0 8.45 1.39l-.53.34c-3.8 3.31-5.92 7.84-8.46 12-4.52 7.41-8.58 15.1-13.85 22.05a7.09 7.09 0 0 0 -.51 1.06c6.27.06 11.71-1.33 16.11-5.81 4.69-4.77 4.57-10.49 3-17 5.93 9.92 2.8 22.78-10.25 25.08-1.23.23-2.86-.48-3.81 1.03z" fill="#7aca42"/><path d="m68.36 49.13.53-.34 1.11-.39c1.42.12 2.67-.64 4.16-.64 2.18 0 3.15-2.08 3.71-3.92s1.61-2.68 3.53-3.25c2.55-.76 4.93-2.06 7.62-2.54s3.26-.21 3.94 2.6c.63 2.61 1.53 5.15 1.15 7.9-.09.64.14 1.47-.76 1.67-5.56 1.19-9.35 5.11-13.35 8.72a5.89 5.89 0 0 1 -5.46 1.7c-3.49-.65-7-1.1-10.15-3.31a12.77 12.77 0 0 1 2.36-3.85c1-1.23 2.41-2.42 1.61-4.35z" fill="#a3d752"/><path d="m65.77 60.37-.36-.11h.17a.85.85 0 0 1 .19.14z" fill="#7aca42"/><path d="m38.36 67.12c-.44 2.92-2.78 4.5-4.61 6.38-4.22 4.36-9.13 7.57-15.22 8.79a3.19 3.19 0 0 1 -2.92-.47c-2.52-1.94-5.06-3.82-7.61-5.75-1.31-1-1.08-2.38-1.13-3.68-.11-2.82 1.37-5.16 2.46-7.62.18-.42.59-.74.3-1.55a27.1 27.1 0 0 0 -6.15 12 3 3 0 0 0 1.11 3.06c1.65 1.51 3.64 2.54 5.33 4.11-.32 1-1.38.27-1.87.81-2.21-1.06-3.85-2.86-5.77-4.31a3 3 0 0 1 -1.1-3.57 21.42 21.42 0 0 1 2.21-5.35 73.81 73.81 0 0 1 12.7-16.14c4.43 8.28 10.61 13.81 20.49 13.58a1.1 1.1 0 0 0 1.26-.11 1.89 1.89 0 0 1 .52-.18zm-23.65-9.89a2.48 2.48 0 0 0 .55 2.36c3.18 5 10.17 9 14.62 8.29-6.93-3.2-8.27-4.41-12.59-10.79-1.03-1.53-1.81-1.61-2.58.14z" fill="#a3d752"/><path d="m69.82 148.49c1 0 1.94-.21 2.46 1 1 2.2 2.81 2.56 4.82 1.92a19.76 19.76 0 0 0 9.24-5.48 20.49 20.49 0 0 1 -6.56 1.81 6.06 6.06 0 0 1 -2.86-.31c-1.44-.67-1.64-1.61-.29-2.49 5.39-3.52 8.94-8.67 12.54-13.8a9.63 9.63 0 0 1 2.15-2.69c2.72 2.6 3.9 5.69 2.81 9.52 2.79-3.21 3-4.85.76-7.85-2.54-3.34-5.35-6.48-8.07-9.69-2.48-2.91-5.53-5.32-7.55-8.63 2.58 1.6 4.38 4 6.41 6.21 3.68 3.93 7.39 7.86 10.81 12a4.65 4.65 0 0 1 1 4.79c-1.37 4.41-4.4 7.67-7.58 10.78a41.07 41.07 0 0 1 -11.91 7.77c-3.89 1.76-4.9 1.43-6.89-2.28-.42-.85-.85-1.72-1.29-2.58z" fill="#a2d752"/><path d="m55.26 118.7c-6.5-1.14-9.1-4.47-8.7-11.16 1.08-3.86 3.72-5.73 7.63-6a.61.61 0 0 0 .86.05c.34-.46 1.88 1.41 1.37-.7v.11c.46-.46.26-1.08.38-1.62a6 6 0 0 1 7.72-4.83 9.6 9.6 0 0 1 6.18 4.79c.56 1 1.08 2 1.62 3-.61.45-.09.87 0 1.3-.42.67-.15 1.45-.32 2.16a1.66 1.66 0 0 0 -.48 1.4c-1.84 2.4-4.1 3.81-7.24 2.82-1.25-.4-1.37.18-1.56 1.22-.87 4.95-2.59 6.6-7.46 7.46zm3.74-16.55a5.25 5.25 0 0 0 3.83 5.85 4.37 4.37 0 0 0 5.84-2.76 6.19 6.19 0 0 0 -3.22-7.29c-2.49-1.16-5.05-.42-6.21 1.86-.38.75-.9 1.55-.24 2.43zm-9.18 8.77c-.48-.54-.45-1.46-1.29-1.76.11 3.65 2 6 5.13 6.24a4.93 4.93 0 0 0 5.16-4.1 6 6 0 0 0 -4.43-6.57c-2.6-.62-4.43.46-5.55 3.51 1.82-1.41 2.31-.21 2.74 1.1a1.86 1.86 0 0 1 -1.75 1.58z" fill="#fcfdfc"/><path d="m71.54 107.23a1.66 1.66 0 0 1 .48-1.4c3.08 1.18 4.94 3.84 7.25 6 2 3.31 5.07 5.72 7.55 8.63 2.72 3.21 5.53 6.35 8.07 9.69 2.27 3 2 4.64-.76 7.85 1.09-3.83-.09-6.92-2.81-9.52a50.8 50.8 0 0 0 -10.6-11.49 10.44 10.44 0 0 0 -2.57-3c-2.15-2.34-4.81-4.14-6.61-6.76z" fill="#c8ec7b"/><path d="m37.84 67.3a1.1 1.1 0 0 1 -1.26.11 1.05 1.05 0 0 1 1.26-.11z" fill="#7aca42"/><path d="m54.43 44c2 2.94 5.32 3.75 8.26 5.22-2.91.08-5.28-1.26-7.56-2.8-2.5-1.68-2.52-1.7-4 .93-1.14 2-2.25 4-3.68 6.56-2.76-5.06-5.81-9.43-10.84-12.23.11 1.72 2.59 1.49 2.09 3.3-1.34-1.39-3.08-2.26-4.81-3.63a95.43 95.43 0 0 1 13.11-8.54c1.09 4.1 3.47 7.08 6.1 9.89.32.56.48 1.26 1.3 1.32z" fill="#a7d956"/><path d="m54.42 44c-.82-.06-1-.76-1.3-1.32.77.13 1.01.76 1.3 1.32z" fill="#7aca42"/><path d="m80.7 22.82c-.9-.23-1.82-.42-2.7-.72a.91.91 0 0 1 -.64-1.1c.13-.54.58-.7 1.08-.75a2 2 0 0 1 2.27 2.58z" fill="#f8fcef"/><path d="m84.34 22.14a1 1 0 0 0 .52-.24l.16.6a.64.64 0 0 1 -.68-.36z" fill="#7aca42"/><path d="m55.05 101.62a.61.61 0 0 1 -.86-.05c.25-1-.51-.85-1-.82-3.87.22-6.3 2.3-7.48 5.93a2 2 0 0 1 -2.84-.41c-3.08-3.58-6.78-6.52-10.07-9.89-1.65-1.7-1.72-1.81.28-2.8a36.64 36.64 0 0 0 9.92-7.3c1.55-1.59 1.44-.4 1.53.74 0 .07.34.11.52.17a54 54 0 0 1 8.3 4.65c-2 1.58-2 1.58-1.11 4.59 1-2.57 2.71-3.25 5-2.42.93.6.58 1.19.07 1.88a4.93 4.93 0 0 0 -.92 5.1v-.07zm-6-3.26c-1.82-1-3.21-1.48-4.26 0-1.18 1.68-.64 3.34.95 5.58-.05-2.82.98-4.42 3.33-5.58z" fill="#a3d752"/><path d="m50.61 88.83h-.45l.16-.27.27.33z" fill="#fefefe"/><path d="m71.54 107.23c1.8 2.62 4.44 4.42 6.61 6.67a10.44 10.44 0 0 1 2.57 3 50.48 50.48 0 0 1 -12.72 14.86c-2 1.51-2.69.48-3.53-.74-2.07-3-4.4-5.81-6.75-8.59-1-1.17-2.14-2.17-2.5-3.73 4.87-.86 6.59-2.51 7.48-7.43.19-1 .31-1.62 1.56-1.22 3.18.95 5.44-.42 7.28-2.82zm-9.93 12.13c1.72 2.89 3.28 3.6 5 2.61s2.14-3.55.72-5.93c0 1.75.18 3.67-1.54 4.64-1.38.81-2.65-.32-4.18-1.32z" fill="#a3d752"/><path d="m45.71 106.68c1.18-3.63 3.61-5.71 7.48-5.93.49 0 1.25-.16 1 .82-3.91.24-6.55 2.11-7.63 6-.56-.02-.73-.44-.85-.89z" fill="#207a3e"/><path d="m14.71 57.23c.77-1.75 1.55-1.67 2.58-.14 4.32 6.38 5.66 7.59 12.59 10.79-4.45.66-11.44-3.3-14.62-8.29.69-.22 1.85.83 2-.62a1.69 1.69 0 0 0 -1.53-2 2.89 2.89 0 0 0 -1.02.26z" fill="#ceed7e"/><path d="m14.71 57.23a2.89 2.89 0 0 1 1.06-.23 1.69 1.69 0 0 1 1.53 2c-.19 1.45-1.35.4-2 .62a2.48 2.48 0 0 1 -.59-2.39z" fill="#fbfdf5"/><path d="m51.59 109.34c-.43-1.31-.92-2.51-2.74-1.1 1.12-3 2.95-4.13 5.55-3.51a6 6 0 0 1 4.43 6.57 4.93 4.93 0 0 1 -5.16 4.1c-3.09-.24-5-2.59-5.13-6.24.84.3.81 1.22 1.29 1.76a7.55 7.55 0 0 0 .48 1c1.1 1.71 2.73 2.36 4.35 1.77a3.63 3.63 0 0 0 2.45-3.69c-.24-1.87-2.07-3.71-3.83-3.68-1.15 0-2.52.15-1.55 2a1.16 1.16 0 0 1 -.14 1.02z" fill="#5b855b"/><path d="m59 102.22c-.66-.88-.14-1.68.24-2.43 1.16-2.28 3.72-3 6.21-1.86a6.19 6.19 0 0 1 3.22 7.29 4.37 4.37 0 0 1 -5.84 2.78 5.25 5.25 0 0 1 -3.83-5.85l.82 1.55a5.26 5.26 0 0 0 2.18 2.58 3.47 3.47 0 0 0 4.42-.56c1.3-1.6 1.09-3.71-.53-5.47a3.4 3.4 0 0 0 -4.39-.62c-.18.11-.17.5-.25.77-1.76-.62-1.66 1.02-2.25 1.82z" fill="#5d875d"/><path d="m51.59 109.34a1.16 1.16 0 0 0 .14-1.09c-1-1.82.4-1.94 1.55-2 1.76 0 3.59 1.81 3.83 3.68a3.63 3.63 0 0 1 -2.45 3.77c-1.62.59-3.25-.06-4.35-1.77a7.55 7.55 0 0 1 -.48-1 1.86 1.86 0 0 0 1.76-1.59z" fill="#020303"/><path d="m55.05 101.62 1.37-.7c.51 2.08-1.03.24-1.37.7z" fill="#0c6e30"/><path d="m49.07 98.36c-2.35 1.16-3.38 2.76-3.31 5.61-1.59-2.24-2.13-3.9-.95-5.58 1.05-1.51 2.44-1 4.26-.03z" fill="#151c0b"/><path d="m61.61 119.36c1.53 1 2.8 2.13 4.22 1.32 1.72-1 1.59-2.89 1.54-4.64 1.42 2.38 1.11 4.9-.72 5.93s-3.32.28-5.04-2.61z" fill="#117333"/><path d="m61.24 100.4c.08-.27.07-.66.25-.77a3.4 3.4 0 0 1 4.39.62c1.62 1.76 1.83 3.87.53 5.47a3.47 3.47 0 0 1 -4.42.56 5.26 5.26 0 0 1 -2.16-2.58c2.11-.51 2.31-.98 1.41-3.3z" fill="#020302"/><path d="m61.24 100.4c.9 2.32.7 2.79-1.41 3.3l-.83-1.55v.07c.59-.8.49-2.44 2.24-1.82z" fill="#e5e7e4"/></svg>